# xmcd CD database file
#
# Track frame offsets:
#	150
#	63432
#	112897
#	159642
#	189695
#	202532
#	215395
#	227630
#
# Disc length: 3191 seconds
#
# Revision: 0
# Processed by: cddbd v1.5.2PL0 Copyright (c) Steve Scherf et al.
# Submitted via: CDex 1.70beta2
#
DISCID=630c7508
DTITLE=Miles Davis - Bitches Brew Legacy Edition2
DYEAR=1969
DGENRE=Jazz
TTITLE0=Miles Runs The Voodoo Down
TTITLE1=Sanctuary
TTITLE2=Spanish Key (alternate take)
TTITLE3=John McLaughlin (alternate take)
TTITLE4=Miles Runs The Voodoo Down (single edit)
TTITLE5=Spanish Key (single edit)
TTITLE6=Great Expectations (single edit)
TTITLE7=Little Blue Frog (single edit)
EXTD=YEAR: 1969
EXTT0=
EXTT1=
EXTT2=
EXTT3=
EXTT4=
EXTT5=
EXTT6=
EXTT7=
PLAYORDER=
